<?xml version="1.0" encoding="UTF-8"?>
<svg width="1200pt" height="1200pt" version="1.1" viewBox="0 0 1200 1200" xmlns="http://www.w3.org/2000/svg">
 <path d="m1054.1 171.43c-17.449-41.258-197.48-107.87-256.97 157.84l-314.07 235.56-469.84 281.32 23.531 8.1484 62.426-18.215-99.133 58.547 32.508 11.258 336.29-99.938s151.71 20.723 269.93 20.809c-5.5664 11.148-11.137 22.285-16.715 33.434-5.6289 11.27 41.965 123.96 59.543 177.62-29.641 4.5-59.293 9.0117-88.934 13.512-10.598 1.6094-6.0703 17.652 4.4297 16.055 31.223-4.7383 62.438-9.4805 93.648-14.219 31.211 4.7383 62.438 9.4805 93.637 14.219 10.5 1.5977 15.023-14.449 4.4297-16.055-29.891-4.5469-59.797-9.0859-89.699-13.633-1.3555-4.6211-2.7227-9.2383-4.0938-13.848-5.3047-17.977-10.609-35.941-15.926-53.914-9.9258-33.574-19.824-67.152-29.746-100.73-0.070312-0.23828-0.14453-0.38281-0.20312-0.58984 3.6016-7.2227 117.09-58.945 117.09-58.945s-0.046875 0-0.058594-0.011718c412.27-148.41 185.19-488.62 272.08-541.45 36.539-22.215 161.8-55.523 161.8-55.523 0-37.91-145.95-41.246-145.95-41.246z"/>
</svg>
